<svg width="51" height="51" viewBox="0 0 51 51" fill="none" xmlns="http://www.w3.org/2000/svg">
<path d="M4.3919 1.90234H2.06738V48.377H4.3919V1.90234Z" fill="#042462"/>
<path d="M48.5718 1.90234H46.2473V48.3875H48.5718V1.90234Z" fill="#042462"/>
<path d="M26.4819 2.00415H24.1573V48.3752H26.4819V2.00415Z" fill="#042462"/>
<path d="M47.4096 23.9763H25.3196V26.3008H47.4096V23.9763Z" fill="#042462"/>
<path d="M26.4801 46.0471H2.07794V48.3716H26.4801V46.0471Z" fill="#042462"/>
<path d="M37.5181 1.89526H13.1194V4.21978H37.5181V1.89526Z" fill="#042462"/>
<path d="M15.4404 23.9888H13.1159V48.2698H15.4404V23.9888Z" fill="#042462"/>
<path d="M3.2297 5.96673C4.83348 5.96673 6.13359 4.66661 6.13359 3.06283C6.13359 1.45905 4.83348 0.158936 3.2297 0.158936C1.62592 0.158936 0.325806 1.45905 0.325806 3.06283C0.325806 4.66661 1.62592 5.96673 3.2297 5.96673Z" fill="#042462"/>
<path d="M14.2764 5.93328C15.8802 5.93328 17.1803 4.63316 17.1803 3.02938C17.1803 1.42561 15.8802 0.125488 14.2764 0.125488C12.6726 0.125488 11.3725 1.42561 11.3725 3.02938C11.3725 4.63316 12.6726 5.93328 14.2764 5.93328Z" fill="#042462"/>
<path fill-rule="evenodd" clip-rule="evenodd" d="M14.2764 28.2287C15.8758 28.2287 17.1803 26.9242 17.1803 25.3248C17.1803 23.7254 15.8758 22.4209 14.2764 22.4209C12.677 22.4209 11.3725 23.7254 11.3725 25.3248C11.3725 26.9225 12.677 28.2287 14.2764 28.2287Z" fill="#042462"/>
<path fill-rule="evenodd" clip-rule="evenodd" d="M36.3488 5.97356C37.9482 5.97356 39.2527 4.66909 39.2527 3.06967C39.2527 1.47024 37.9482 0.165771 36.3488 0.165771C34.7494 0.165771 33.4449 1.47024 33.4449 3.06967C33.4449 4.66733 34.7494 5.97356 36.3488 5.97356Z" fill="#042462"/>
<path d="M50.0798 4.14711C50.6998 2.66795 50.0033 0.96622 48.5241 0.3462C47.045 -0.27382 45.3432 0.422654 44.7232 1.90182C44.1032 3.38098 44.7997 5.0827 46.2788 5.70272C47.758 6.32274 49.4597 5.62627 50.0798 4.14711Z" fill="#042462"/>
<path fill-rule="evenodd" clip-rule="evenodd" d="M47.4166 50.1061C49.016 50.1061 50.3205 48.8016 50.3205 47.2022C50.3205 45.6028 49.016 44.2983 47.4166 44.2983C45.8172 44.2983 44.5127 45.6028 44.5127 47.2022C44.5127 48.7999 45.8172 50.1061 47.4166 50.1061Z" fill="#042462"/>
<path d="M3.22616 50.1044C4.82994 50.1044 6.13005 48.8043 6.13005 47.2005C6.13005 45.5967 4.82994 44.2966 3.22616 44.2966C1.62238 44.2966 0.322266 45.5967 0.322266 47.2005C0.322266 48.8043 1.62238 50.1044 3.22616 50.1044Z" fill="#042462"/>
<path d="M14.2799 50.1132C15.8837 50.1132 17.1838 48.8131 17.1838 47.2093C17.1838 45.6055 15.8837 44.3054 14.2799 44.3054C12.6762 44.3054 11.376 45.6055 11.376 47.2093C11.376 48.8131 12.6762 50.1132 14.2799 50.1132Z" fill="#042462"/>
<path fill-rule="evenodd" clip-rule="evenodd" d="M25.3231 50.1115C26.9226 50.1115 28.227 48.807 28.227 47.2076C28.227 45.6082 26.9226 44.3037 25.3231 44.3037C23.7237 44.3037 22.4193 45.6082 22.4193 47.2076C22.4193 48.807 23.7237 50.1115 25.3231 50.1115Z" fill="#042462"/>
<path fill-rule="evenodd" clip-rule="evenodd" d="M25.3196 28.0602C26.919 28.0602 28.2235 26.7558 28.2235 25.1563C28.2235 23.5569 26.919 22.2524 25.3196 22.2524C23.7202 22.2524 22.4157 23.5569 22.4157 25.1563C22.414 26.754 23.7202 28.0602 25.3196 28.0602Z" fill="#042462"/>
<path fill-rule="evenodd" clip-rule="evenodd" d="M47.4096 28.0495C49.009 28.0495 50.3135 26.745 50.3135 25.1456C50.3135 23.5462 49.009 22.2417 47.4096 22.2417C45.8101 22.2417 44.5057 23.5462 44.5057 25.1456C44.5057 26.7433 45.8101 28.0495 47.4096 28.0495Z" fill="#042462"/>
<path d="M25.7848 5.92175C27.368 5.66547 28.4438 4.17423 28.1875 2.59098C27.9312 1.00774 26.44 -0.0679826 24.8567 0.188301C23.2735 0.444585 22.1977 1.93582 22.454 3.51907C22.7103 5.10232 24.2015 6.17804 25.7848 5.92175Z" fill="#042462"/>
</svg>
